<svg width="51" height="50" viewBox="0 0 51 50" fill="none" xmlns="http://www.w3.org/2000/svg">
<path d="M25.5863 4.95446C32.2112 4.95446 32.9727 4.9925 35.5998 5.10664C37.9985 5.22078 39.3311 5.60123 40.2068 5.94363C41.3491 6.40018 42.1867 6.93281 43.0624 7.80785C43.9381 8.68289 44.4712 9.48184 44.9281 10.6612C45.2708 11.5363 45.6896 12.8298 45.7657 15.2647C45.8799 17.8898 45.918 18.6507 45.918 25.2706C45.918 31.8904 45.8799 32.6513 45.7657 35.2765C45.6515 37.6733 45.2708 39.0049 44.9281 39.8799C44.4712 41.0213 43.9381 41.8583 43.0624 42.7333C42.1867 43.6084 41.3872 44.141 40.2068 44.5975C39.3311 44.9399 38.0366 45.3584 35.5998 45.4345C32.9727 45.5487 32.2112 45.5867 25.5863 45.5867C18.9613 45.5867 18.1998 45.5487 15.5727 45.4345C13.174 45.3204 11.8414 44.9399 10.9657 44.5975C9.82345 44.141 8.98581 43.6084 8.1101 42.7333C7.23439 41.8583 6.70134 41.0593 6.24445 39.8799C5.90178 39.0049 5.48296 37.7114 5.40681 35.2765C5.29259 32.6513 5.25451 31.8904 5.25451 25.2706C5.25451 18.6507 5.29259 17.8898 5.40681 15.2647C5.52104 12.8679 5.90178 11.5363 6.24445 10.6612C6.70134 9.51988 7.23439 8.68289 8.1101 7.80785C8.98581 6.93281 9.78537 6.40018 10.9657 5.94363C11.8414 5.60123 13.1359 5.18273 15.5727 5.10664C18.1617 4.9925 18.9613 4.95446 25.5863 4.95446ZM25.5863 0.503174C18.8471 0.503174 18.0095 0.541219 15.3442 0.655355C12.7171 0.76949 10.8895 1.18799 9.32848 1.79671C7.69128 2.44348 6.3206 3.28047 4.94992 4.6501C3.57924 6.01972 2.7416 7.38935 2.09434 9.02529C1.48514 10.5851 1.06633 12.4113 0.952102 15.0364C0.837879 17.6996 0.799805 18.5366 0.799805 25.2706C0.799805 32.0046 0.837879 32.8416 0.952102 35.4667C1.06633 38.0918 1.48514 39.918 2.09434 41.4778C2.7416 43.1138 3.57924 44.4834 4.94992 45.853C6.3206 47.2226 7.69128 48.0596 9.32848 48.7064C10.8895 49.3151 12.7171 49.7336 15.3442 49.8478C17.9714 49.9619 18.8471 49.9999 25.5482 49.9999C32.2493 49.9999 33.125 49.9619 35.7521 49.8478C38.3793 49.7336 40.2068 49.3151 41.7679 48.7064C43.4051 48.0596 44.7758 47.2226 46.1465 45.853C47.5171 44.4834 48.3548 43.1138 49.002 41.4778C49.6112 39.918 50.0301 38.0918 50.1443 35.4667C50.2585 32.8416 50.2966 31.9665 50.2966 25.2706C50.2966 18.5746 50.2585 17.6996 50.1443 15.0745C50.0301 12.4494 49.6112 10.6232 49.002 9.06334C48.3548 7.4274 47.5171 6.05777 46.1465 4.68814C44.7758 3.31852 43.4051 2.48152 41.7679 1.83475C40.2068 1.22603 38.3793 0.807535 35.7521 0.6934C33.125 0.541219 32.2874 0.503174 25.5863 0.503174Z" fill="white"/>
<path d="M25.586 12.5641C18.5422 12.5641 12.8691 18.2708 12.8691 25.2711C12.8691 32.2713 18.5803 37.978 25.586 37.978C32.5917 37.978 38.3028 32.2713 38.3028 25.2711C38.3028 18.2708 32.5917 12.5641 25.586 12.5641ZM25.586 33.4887C21.0171 33.4887 17.3238 29.7984 17.3238 25.233C17.3238 20.6676 21.0171 16.9773 25.586 16.9773C30.1549 16.9773 33.8481 20.6676 33.8481 25.233C33.8481 29.7984 30.1168 33.4887 25.586 33.4887Z" fill="white"/>
<path d="M38.7979 14.9987C40.4381 14.9987 41.7677 13.67 41.7677 12.031C41.7677 10.392 40.4381 9.06335 38.7979 9.06335C37.1578 9.06335 35.8281 10.392 35.8281 12.031C35.8281 13.67 37.1578 14.9987 38.7979 14.9987Z" fill="white"/>
</svg>
