<svg width="56" height="56" viewBox="0 0 56 56" fill="none" xmlns="http://www.w3.org/2000/svg">
<path d="M53.9543 32.903C54.21 31.4351 54.3379 29.9252 54.3379 28.4152C54.3379 14.155 42.5753 2.579 28.0852 2.579C26.5084 2.579 24.9741 2.70482 23.5251 2.95647C21.1811 1.61433 18.5388 0.859375 15.6834 0.859375C7.03196 0.859375 0 7.7798 0 16.294C0 19.1461 0.809741 21.8304 2.17352 24.0952C1.91781 25.4793 1.83257 26.9053 1.83257 28.3733C1.83257 42.6336 13.5951 54.2095 28.0852 54.2095C29.6195 54.2095 31.1111 54.0837 32.5601 53.8321C34.8615 55.1323 37.5038 55.8453 40.3166 55.8453C48.968 55.8453 56 48.9249 56 40.4106C55.9574 37.7264 55.2329 35.126 53.9543 32.903ZM17.516 33.7838C20.1157 33.658 21.0107 36.7198 22.9285 38.02C25.102 39.446 31.8782 40.9978 33.8387 36.51C35.2877 32.6514 30.9833 32.0642 26.7215 31.0576C20.2009 29.6735 14.7458 28.0378 14.831 21.4948C14.7884 15.2035 19.86 12.6031 24.761 12.1418C30.5571 11.6385 34.8615 12.8128 38.0152 15.3713C41.723 18.475 39.7199 21.8723 37.0776 21.9562C33.3272 22.0401 33.3699 17.1329 27.1903 17.2167C21.863 17.1329 19.3912 22.2078 24.9741 23.9694C32.8158 26.0246 39.1233 25.7729 41.1263 32.2739C42.7032 38.3555 38.9528 44.0177 29.79 44.7307C22.5449 45.1081 18.7093 43.0949 16.2374 40.6623C13.2542 37.3069 14.6606 33.9096 17.516 33.7838Z" fill="white"/>
</svg>
