<svg width="51" height="42" viewBox="0 0 51 42" fill="none" xmlns="http://www.w3.org/2000/svg">
<path d="M46.7919 0.926321L2.43597 17.3968C0.00652021 18.0816 0.0801398 20.4242 1.88382 21.0008L13.0004 24.3887L17.2703 37.147C17.7857 38.5525 18.2274 39.0571 19.1108 39.0932C20.0311 39.0932 20.3992 38.7688 21.3562 37.9399C22.4973 36.8947 24.1906 35.2729 26.9145 32.678L38.4728 41.0393C40.6078 42.1926 42.1538 41.5799 42.6691 39.0932L49.8839 3.98976C50.6569 0.926321 48.8164 0.02531 46.7919 0.926321ZM14.7305 23.5958L39.982 8.06233C41.2336 7.2334 41.6017 8.17045 41.0495 8.78314L20.1047 27.2719L19.0372 36.4982L14.7305 23.5958Z" fill="white"/>
</svg>
