<svg width="56" height="61" viewBox="0 0 56 61" fill="none" xmlns="http://www.w3.org/2000/svg">
<path d="M49.8287 5.6893C47.5469 3.76465 44.8459 2.5732 41.9587 1.84C34.7406 0.00700326 27.4294 -0.497071 20.0251 0.511078C16.2996 1.01515 12.6673 1.97748 9.31439 3.81047C5.40265 6.01007 2.7017 9.12617 1.53749 13.4337C0.652694 16.504 0.23358 19.6659 0.0938757 22.8278C-0.138965 27.502 0.00073922 32.1761 1.21151 36.7128C2.60856 41.9826 5.68206 45.8778 10.9443 47.9857C11.5031 48.2148 12.0619 48.5356 12.6207 48.7647C13.133 48.9939 13.3193 49.3146 13.3193 49.8645C13.2727 53.5305 13.3193 57.1965 13.3193 61C14.7163 59.6711 15.6477 58.7087 16.3462 57.9755C18.3952 55.6843 20.3511 53.7597 22.5398 51.5601C23.6108 50.4603 23.1917 50.5061 24.8682 50.5519C26.8706 50.5977 29.9907 50.6436 31.9931 50.5061C35.7651 50.2311 39.5372 49.7271 43.1695 48.6731C47.8263 47.2983 51.5052 44.8696 53.4145 40.2413C53.9267 39.004 54.3924 37.7668 54.7184 36.4837C56.5346 29.1517 56.3017 21.7738 54.765 14.4419C54.0665 11.005 52.5763 7.98054 49.8287 5.6893ZM26.7775 10.1343C26.824 9.44694 27.2432 9.17199 27.8951 9.17199C33.6696 9.44694 38.0004 11.1425 41.3068 15.5417C43.2626 18.1079 44.3337 21.6364 44.4268 24.8899C44.4268 25.394 44.4268 25.8523 44.4268 26.3563C44.3803 26.9062 44.1474 27.3187 43.542 27.3187C42.9366 27.3187 42.6107 26.9979 42.5641 26.3563C42.4244 23.9734 41.9121 21.6364 40.9808 19.391C39.1646 15.0834 35.7186 12.7463 31.2946 11.6465C30.1304 11.3716 28.9196 11.0966 27.7088 11.005C27.2432 10.9592 26.7309 10.8217 26.7775 10.1343ZM32.5985 16.1374C31.4343 15.725 30.2235 15.4042 29.0127 15.2209C28.4074 15.1292 27.9882 14.8085 28.0814 14.1211C28.1745 13.4795 28.5936 13.2046 29.2456 13.2962C33.2505 13.6628 36.4171 15.1292 38.5592 18.5203C39.5837 20.1242 40.1426 22.4154 40.096 24.1109C40.0494 25.3024 39.8631 25.6231 39.1646 25.6231C38.1401 25.5773 38.2798 24.7525 38.2333 24.1567C38.0936 23.2402 37.9073 22.3237 37.6279 21.4072C36.8362 18.7952 35.2063 17.0539 32.5985 16.1374ZM35.998 22.8278C35.9514 23.1486 35.9514 23.3777 35.9048 23.6068C35.8117 24.0651 35.5323 24.2942 35.02 24.34C34.5078 24.34 34.275 24.0651 34.1353 23.6527C34.0421 23.3777 34.0421 23.0569 33.949 22.7362C33.623 21.1323 32.6916 20.0783 31.1083 19.6659C30.922 19.6201 30.6892 19.5742 30.5029 19.5284C29.9907 19.3909 29.3853 19.391 29.3387 18.6578C29.3387 18.062 29.8044 17.6954 30.6426 17.6496C31.2015 17.6038 32.0863 17.8787 32.5985 18.1537C34.7406 19.116 35.7186 20.5366 35.998 22.8278ZM44.4268 39.5997C43.3092 42.0743 41.3999 43.724 38.7455 44.4572C37.7676 44.7321 36.8362 44.503 35.9514 44.1364C23.7505 39.0499 14.9491 30.6181 9.96634 18.4745C9.59379 17.6038 9.40752 16.6873 9.40752 15.8624C9.40752 12.7463 12.2016 9.81354 15.2751 9.67607C16.1133 9.63024 16.8584 9.90519 17.4638 10.4551C19.606 12.4256 21.329 14.7168 22.5863 17.3747C23.2849 18.7952 23.0054 19.8034 21.7481 20.8115C21.5618 20.9948 21.329 21.1323 21.1427 21.2698C19.5128 22.4612 19.1403 23.6527 19.9319 25.5315C21.2359 28.6018 23.3314 30.9847 26.1255 32.726C27.1966 33.4134 28.2677 34.0091 29.525 34.3757C30.6426 34.6965 31.574 34.3757 32.2725 33.4592C32.3657 33.3676 32.4122 33.2759 32.5054 33.1384C34.0887 30.9847 35.7651 30.6181 38.047 32.0386C40.0028 33.2301 41.819 34.6048 43.5886 36.0712C44.7528 37.0336 45.0788 38.225 44.4268 39.5997Z" fill="white"/>
</svg>
