<svg width="61" height="35" viewBox="0 0 61 35" fill="none" xmlns="http://www.w3.org/2000/svg">
<path fill-rule="evenodd" clip-rule="evenodd" d="M29.5491 34.2971H33.1574C33.1574 34.2971 34.2474 34.1874 34.8112 33.6027C35.3374 33.0545 35.2999 32.0678 35.2999 32.0678C35.2999 32.0678 35.2247 27.3535 37.4799 26.6592C39.6975 25.9648 42.5541 31.2273 45.561 33.2373C47.8538 34.7721 49.5827 34.4432 49.5827 34.4432L57.6639 34.3336C57.6639 34.3336 61.8735 34.0778 59.8815 30.8618C59.7311 30.606 58.7163 28.4864 53.8676 24.101C48.7934 19.5329 49.47 20.2638 55.5966 12.3701C59.3177 7.5462 60.7835 4.62261 60.3325 3.34354C59.8815 2.13756 57.1752 2.46646 57.1752 2.46646L48.0793 2.50301C48.0793 2.50301 47.4027 2.42992 46.9141 2.72228C46.4255 3.01464 46.1248 3.67245 46.1248 3.67245C46.1248 3.67245 44.6965 7.40002 42.7796 10.5794C38.7202 17.2306 37.0664 17.5595 36.4275 17.1575C34.8864 16.2073 35.2623 13.2837 35.2623 11.2007C35.2623 4.73225 36.2771 2.02793 33.3078 1.33357C32.2929 1.07776 31.5788 0.931579 29.0605 0.895034C25.8281 0.858489 23.0842 0.895034 21.5056 1.66248C20.4532 2.13756 19.6639 3.27045 20.1525 3.307C20.7539 3.38009 22.107 3.67244 22.8211 4.62261C23.7608 5.86514 23.7232 8.606 23.7232 8.606C23.7232 8.606 24.2494 16.2439 22.4829 17.1941C21.2425 17.8519 19.5887 16.4997 15.9804 10.4332C14.1386 7.32693 12.7479 3.89171 12.7479 3.89171C12.7479 3.89171 12.4848 3.23391 11.9962 2.905C11.4324 2.50301 10.6055 2.35683 10.6055 2.35683L1.9606 2.39337C1.9606 2.39337 0.645073 2.42992 0.194034 2.97809C-0.219418 3.45318 0.156448 4.47643 0.156448 4.47643C0.156448 4.47643 6.92203 19.8618 14.5897 27.6093C21.5808 34.7721 29.5491 34.2971 29.5491 34.2971Z" fill="white"/>
</svg>
