<svg width="50" height="49" viewBox="0 0 50 49" fill="none" xmlns="http://www.w3.org/2000/svg">
<path fill-rule="evenodd" clip-rule="evenodd" d="M25.5137 0C12.15 0 1.27523 10.5908 1.27523 23.689C1.27523 28.1798 2.53885 32.3338 4.75975 35.9264L0.394531 48.6129L13.7965 44.4215C17.281 46.2927 21.2633 47.3779 25.5137 47.3779C38.8774 47.3779 49.7521 36.7871 49.7521 23.689C49.7521 10.5908 38.9157 0 25.5137 0ZM25.5137 43.3736C21.4165 43.3736 17.5874 42.1761 14.4092 40.1178L6.67432 42.5503L9.20155 35.2528C6.78919 31.9969 5.37241 27.9927 5.37241 23.689C5.37241 12.8362 14.4092 3.96687 25.552 3.96687C36.6565 3.96687 45.7315 12.7988 45.7315 23.689C45.6932 34.5417 36.6565 43.3736 25.5137 43.3736ZM36.8862 29.0405C36.2735 28.7037 33.2868 27.1319 32.7507 26.9074C32.1764 26.6828 31.7935 26.5706 31.334 27.1693C30.9128 27.7681 29.6491 29.0779 29.3045 29.4522C28.9216 29.8264 28.577 29.8638 27.9643 29.5644C27.3517 29.2276 25.3988 28.5166 23.1013 26.3834C21.3399 24.6994 20.1529 22.6785 19.8083 22.0798C19.4636 21.4436 19.8083 21.1442 20.1146 20.8448C20.4209 20.5828 20.7655 20.1712 21.0719 19.8344C21.3782 19.4976 21.4931 19.2356 21.7228 18.8614C21.9526 18.4497 21.8377 18.1129 21.7228 17.8135C21.5697 17.5141 20.4592 14.4828 19.9997 13.2479C19.5402 12.0129 19.0041 12.2 18.6595 12.2C18.3149 12.2 17.8937 12.1252 17.4725 12.1252C17.0513 12.1252 16.4003 12.2374 15.7877 12.8362C15.2133 13.435 13.5285 14.8196 13.4136 17.8135C13.2987 20.7699 15.4047 23.7264 15.7111 24.138C16.0174 24.5497 19.7317 30.9865 25.9349 33.6436C32.1381 36.3006 32.1764 35.4773 33.2868 35.4399C34.4356 35.365 37.0011 34.0927 37.5755 32.708C38.1498 31.3233 38.1881 30.0884 38.035 29.8638C37.8818 29.5644 37.4989 29.3773 36.8862 29.0405Z" fill="white"/>
</svg>
